<?xml version="1.0" encoding="UTF-8" standalone="no"?>
<!-- Created with Inkscape (http://www.inkscape.org/) -->

<svg
   width="27.102375mm"
   height="32.047543mm"
   viewBox="0 0 27.102375 32.047543"
   version="1.1"
   id="svg1"
   xml:space="preserve"
   inkscape:version="1.4 (e7c3feb1, 2024-10-09)"
   sodipodi:docname="planomy_potential_icon.svg"
   inkscape:export-filename="planomy_potential_icon.svg"
   inkscape:export-xdpi="96"
   inkscape:export-ydpi="96"
   xmlns:inkscape="http://www.inkscape.org/namespaces/inkscape"
   xmlns:sodipodi="http://sodipodi.sourceforge.net/DTD/sodipodi-0.dtd"
   xmlns="http://www.w3.org/2000/svg"
   xmlns:svg="http://www.w3.org/2000/svg"><sodipodi:namedview
     id="namedview1"
     pagecolor="#ffffff"
     bordercolor="#000000"
     borderopacity="0.25"
     inkscape:showpageshadow="2"
     inkscape:pageopacity="0.0"
     inkscape:pagecheckerboard="0"
     inkscape:deskcolor="#d1d1d1"
     inkscape:document-units="mm"
     inkscape:zoom="2.1005767"
     inkscape:cx="-14.995882"
     inkscape:cy="67.600482"
     inkscape:window-width="1512"
     inkscape:window-height="921"
     inkscape:window-x="0"
     inkscape:window-y="33"
     inkscape:window-maximized="1"
     inkscape:current-layer="layer1" /><defs
     id="defs1"><linearGradient
       id="linearGradient7"><stop
         style="stop-color:#00c4ff;stop-opacity:1;"
         offset="0"
         id="stop6" /><stop
         style="stop-color:#6d00ff;stop-opacity:1;"
         offset="1"
         id="stop7" /></linearGradient><linearGradient
       id="linearGradient1"><stop
         style="stop-color:#00c4ff;stop-opacity:1;"
         offset="0"
         id="stop4" /><stop
         style="stop-color:#0053ff;stop-opacity:1;"
         offset="1"
         id="stop5" /></linearGradient></defs><g
     inkscape:label="Layer 1"
     inkscape:groupmode="layer"
     id="layer1"
     transform="translate(-34.706768,-118.50844)"><g
       style="fill:none;stroke:#000000;stroke-width:2;stroke-linecap:round;stroke-linejoin:round;stroke-opacity:1"
       id="g1"
       transform="matrix(-0.67976355,-1.177385,1.177385,-0.67976355,42.286498,156.81799)"><path
         d="m 13,13.74 a 2,2 0 0 1 -2,0 L 2.5,8.87 a 1,1 0 0 1 0,-1.74 L 11,2.26 a 2,2 0 0 1 2,0 l 8.5,4.87 a 1,1 0 0 1 0,1.74 z"
         id="path1"
         style="stroke:#000000;stroke-opacity:1" /><path
         d="m 20,14.285 1.5,0.845 a 1,1 0 0 1 0,1.74 L 13,21.74 a 2,2 0 0 1 -2,0 L 2.5,16.87 a 1,1 0 0 1 0,-1.74 L 4,14.285"
         id="path2"
         style="stroke:#000000;stroke-opacity:1" /></g></g></svg>
